<?xml version="1.0" encoding="utf-8"?>
<!-- Generator: Adobe Illustrator 16.0.0, SVG Export Plug-In . SVG Version: 6.00 Build 0)  -->
<!DOCTYPE svg PUBLIC "-//W3C//DTD SVG 1.1//EN" "http://www.w3.org/Graphics/SVG/1.1/DTD/svg11.dtd">
<svg version="1.1" id="Layer_1" xmlns="http://www.w3.org/2000/svg" xmlns:xlink="http://www.w3.org/1999/xlink" x="0px" y="0px"
	 width="512px" height="512px" viewBox="0 0 512 512" enable-background="new 0 0 512 512" xml:space="preserve">
<path fill="none" stroke="#000000" stroke-width="25" stroke-linecap="round" stroke-linejoin="round" stroke-miterlimit="10" d="
	M172,233.5c11-1,27.5-3.5,19.5,73s-28.5,125.5-8-8S223,134,235,117s60.667-53,36,43c-26.256,102.186-63.5,135.5-58.5,138.5
	s20,17.5,24,55S255,392,261,394"/>
<path fill="none" stroke="#000000" stroke-width="20" stroke-linecap="round" stroke-linejoin="round" stroke-miterlimit="10" d="
	M219.795,68.963C240.263,51.887,263.457,42.317,285.5,44.5C330.504,48.956,363,95,346,166c-8.891,37.131-70.834,110.666-60,98
	c14.424-16.864,81.334-47.333,90,34S274,460,194.666,467.333"/>
<line fill="none" stroke="#000000" stroke-width="20" stroke-linecap="round" stroke-linejoin="round" stroke-miterlimit="10" x1="202" y1="421" x2="195.333" y2="467.666"/>
</svg>
